# xmcd
#
# Track frame offsets: 
#        150
#        91845
#        150144
#        184298
#
# Disc length: 2926 seconds
#
# Revision: 0
# Processed by: cddbd v1.5.2PL0 Copyright (c) Steve Scherf et al.
# Submitted via: ExactAudioCopy v0.95b4
#
DISCID=200b6c04
DTITLE=Eric Clapton - 1988-09-07 - It's A Guitar Thing - CD2
DYEAR=1988
DGENRE=Blues
TTITLE0=Same Old Blues and Cocaine
TTITLE1=Layla
TTITLE2=Money For Nothing
TTITLE3=Sunshine of Your Love
EXTD=
EXTT0=
EXTT1=
EXTT2=
EXTT3=
PLAYORDER=
